<svg xmlns="http://www.w3.org/2000/svg" width="97" height="32" viewBox="0 0 97 32">
  <g fill="none" fill-rule="evenodd">
    <path fill="#FFFFFF" fill-rule="nonzero" d="M6.00422907.00647577093C6.00317181.00647577093 6.00198238.00647577093 6.00092511.00647577093 5.62969163.00647577093 5.28052863.151189427 5.01687225.414185022 4.75030837.680088106 4.60348018 1.03414097 4.60348018 1.41105727L4.60348018 22.472511C4.60348018 23.2448458 5.23427313 23.8747137 6.00977974 23.876696 9.27911894 23.8844934 14.7565639 24.5659031 18.5352423 28.5202203L18.5352423 6.47881057C18.5352423 6.21700441 18.46837 5.97105727 18.3421586 5.76753304 15.240793.772995595 9.28096916.0141409692 6.00422907.00647577093zM34.6476211 22.472511L34.6476211 1.41092511C34.6476211 1.03400881 34.500793.679955947 34.2342291.414052863 33.9705727.151057269 33.6211454.00634361233 33.2503084.00634361233 33.2491189.00634361233 33.2479295.00634361233 33.2468722.00634361233 29.9702643.0141409692 24.0104405.772995595 20.9089427 5.76753304 20.7827313 5.97105727 20.7159912 6.21700441 20.7159912 6.47881057L20.7159912 28.5200881C24.4946696 24.5657709 29.9721145 23.8843612 33.2414537 23.8765639 34.0168282 23.8745815 34.6476211 23.2447137 34.6476211 22.472511z"/>
    <path fill="#FFFFFF" fill-rule="nonzero" d="M37.846652 4.86356828L36.8282379 4.86356828 36.8282379 22.472511C36.8282379 24.4444493 35.2215859 26.0524229 33.2466079 26.0573128 30.4735242 26.0639207 25.9011013 26.6061674 22.6628194 29.6710573 28.2634361 28.2997797 34.167489 29.1911894 37.5322467 29.9579736 37.9523789 30.0536564 38.3865198 29.9548018 38.7231278 29.6865198 39.0585463 29.4188987 39.2509692 29.0188546 39.2509692 28.5894714L39.2509692 6.26788546C39.2511013 5.49356828 38.6209692 4.86356828 37.846652 4.86356828zM2.42273128 22.472511L2.42273128 4.86356828 1.40431718 4.86356828C.630132159 4.86356828 0 5.49356828 0 6.26788546L0 28.5890749C0 29.0185903.192422907 29.4185022.52784141 29.6861233.864185022 29.9542731 1.29792952 30.0535242 1.71872247 29.9575771 5.08348018 29.1906608 10.9876652 28.2993833 16.5880176 29.6706608 13.3498678 26.6059031 8.77744493 26.0637885 6.00436123 26.0571806 4.02951542 26.0524229 2.42273128 24.4444493 2.42273128 22.472511z"/>
    <text fill="#333333" font-family="Roboto-Medium, Roboto" font-size="14" font-weight="400">
      <tspan x="49" y="13">Books</tspan> <tspan x="49" y="29">Catalog</tspan>
    </text>
  </g>
</svg>
